<svg width="60" height="50" viewBox="0 0 60 50" fill="none" xmlns="http://www.w3.org/2000/svg">
<path d="M17.8765 0C22.5829 0 26.1128 2.40727 27.2894 7.22181C27.9953 10.3513 27.9953 16.8509 27.8777 20.9432C27.5247 26.48 28.2307 32.0167 27.2894 36.8312C25.6421 45.7381 14.8173 48.1454 10.1109 40.9236C9.40489 39.72 9.16957 38.5163 9.05191 37.3127C8.69893 34.424 9.87554 32.4981 11.5228 30.5723C9.87554 30.8131 8.4636 31.0538 6.81635 30.8131C3.99248 30.3316 1.63926 28.6465 0.697975 26.2392C-0.478636 23.832 -0.00799141 20.4618 0.933297 18.0545C2.10991 15.4065 4.22781 13.4807 6.81635 12.7585C9.64022 11.7956 11.9934 12.2771 14.3467 13.24C13.17 11.5549 12.2288 10.1105 11.7581 8.18472C11.2875 6.01818 11.7581 3.6109 13.17 1.92582C14.3467 0.481454 15.9939 0 17.8765 0Z" fill="black"/>
<path d="M41.1174 0.027832C43.4706 0.027832 45.8238 0.750013 47.4711 2.4351C49.1183 3.87946 50.0596 6.04601 50.0596 8.45328C50.2949 11.1013 49.3537 13.0271 47.7064 14.7122C54.7661 13.2678 60.6491 18.5638 59.9431 26.0263C59.7078 28.9151 58.2959 31.8038 55.9427 33.7296C53.1188 36.1369 50.2949 36.3776 46.7651 36.1369C48.883 38.5441 49.1183 40.47 48.883 43.5994C45.8238 54.1914 31.7045 50.5805 31.2339 40.47C30.7632 35.8961 30.9985 30.1187 30.9985 25.3042C31.2338 16.3973 28.1747 1.23147 41.1174 0.027832Z" fill="black"/>
</svg>
