<svg width="340" height="50" viewBox="0 0 340 50" fill="none" xmlns="http://www.w3.org/2000/svg">
<path d="M87.355 0.580881C93.3786 -0.0407899 96.9643 1.67874 101.909 4.91672C113.309 -3.53664 128.236 0.421951 131.769 15.5349C132.719 19.5948 132.341 25.2537 132.332 29.566L132.273 47.3493L118.256 47.3573L118.254 28.8155C118.254 24.3165 119.64 15.5239 113.37 15.6306C108.167 15.7191 108.767 21.9527 108.775 25.6329L108.804 35.6985L108.817 47.3834L94.7345 47.3995L94.7504 29.4356C94.7511 26.2731 94.8641 23.0122 94.5936 19.8677C94.2526 15.9113 89.3763 14.2741 86.7555 16.9907C86.0826 17.6873 85.6242 18.5796 85.4397 19.5527C85.207 20.8109 85.3322 27.162 85.3382 28.7493L85.3475 47.3613L71.1849 47.3914L71.1648 28.4202C71.1608 25.059 70.9858 19.3474 71.5285 16.2746C72.0365 13.3693 73.1397 10.6141 74.7616 8.19987C77.8207 3.6788 82.2544 1.48951 87.355 0.580881Z" fill="black"/>
<path d="M259.866 4.94133C263.45 2.15726 267.446 0.510366 271.936 0.468226C276.824 0.417657 281.532 2.40809 285.021 6.00106C287.234 8.33263 288.815 11.2407 289.601 14.4261C290.653 18.7012 290.355 25.4203 290.353 30.0779L290.343 47.3795L276.357 47.3835L276.392 29.0123C276.396 25.9642 276.535 22.6772 276.26 19.6772C275.793 17.2489 274.045 15.6079 271.749 15.6462C266.064 15.7413 266.886 21.7862 266.913 25.914C266.94 29.1086 266.945 32.3033 266.928 35.4979C266.877 39.425 266.911 43.4263 266.905 47.3594L252.875 47.3675L252.877 28.1916C252.877 25.5347 253.053 22.1033 252.724 19.5187C252.09 14.5178 244.265 14.3326 243.649 19.4806C243.274 22.625 243.446 26.0143 243.45 29.1789L243.481 47.3875L229.47 47.3835L229.44 28.2859C229.434 24.7722 229.227 19.2867 229.822 16.0343C230.331 13.1449 231.451 10.4124 233.103 8.03965C236.285 3.53806 240.678 1.37926 245.86 0.588426C251.489 0.107223 255.34 1.5707 259.866 4.94133Z" fill="black"/>
<path fill-rule="evenodd" clip-rule="evenodd" d="M314.852 0.68381C327.457 -0.595452 338.664 9.0862 339.89 22.3139C341.118 35.5399 331.897 47.3071 319.294 48.6015C306.681 49.8958 295.458 40.2115 294.231 26.9734C293.003 13.7369 302.239 1.96387 314.852 0.68381ZM316.162 14.9555C321.269 14.4268 325.826 18.322 326.365 23.6764C326.902 29.0323 323.223 33.8403 318.123 34.4423C312.974 35.0523 308.339 31.1433 307.794 25.7353C307.249 20.3272 311.006 15.4893 316.162 14.9555Z" fill="black"/>
<path fill-rule="evenodd" clip-rule="evenodd" d="M202.922 0.61352C206.016 0.345427 209.628 0.903887 212.536 2.02241C217.688 3.96488 221.879 8.00173 224.162 13.2229C226.289 18.1594 226.312 22.922 224.531 27.9428L195.468 27.9588C199.214 37.4505 208.22 38.231 214.259 30.3889C216.254 32.3194 218.483 34.8678 220.395 36.9528L223.019 39.7702C218.363 44.8973 214.056 47.7768 207.174 48.5434C200.835 49.2638 194.485 47.3153 189.515 43.1253C184.683 38.9675 181.865 33.0337 181.268 26.5361C180.748 20.2311 182.647 13.9688 186.544 9.13812C190.762 3.85693 196.474 1.20349 202.922 0.61352ZM203.742 12.0434C208.249 12.2425 210.932 14.4386 212.529 18.8168C209.76 18.8834 206.989 18.9131 204.22 18.9063C201.258 18.9281 198.296 18.9059 195.336 18.8394C196.9 14.3621 199.162 12.5224 203.742 12.0434Z" fill="black"/>
<path d="M155.631 0.208567C161.341 -0.33384 167.982 2.56322 172.064 6.73471C178.874 13.6907 177.923 21.7501 177.912 30.8625L177.885 47.3554L163.73 47.3534L163.754 30.9809C163.762 24.9408 165.215 18.0416 158.528 15.7987C154.348 15.0968 150.888 17.2251 150.255 21.7C149.876 24.3729 150.103 27.7762 150.108 30.5314L150.081 47.3494L135.976 47.3615L135.971 29.8431C135.969 25.9441 135.74 20.5582 136.552 16.8845C137.269 13.6829 138.681 10.6983 140.677 8.16287C144.627 3.11726 149.559 0.867763 155.631 0.208567Z" fill="black"/>
<path d="M17.6052 0C22.2402 0 25.7165 2.40727 26.8753 7.22181C27.5705 10.3513 27.5705 16.8509 27.4546 20.9432C27.107 26.48 27.8023 32.0167 26.8753 36.8312C25.253 45.7381 14.5924 48.1454 9.95743 40.9236C9.26217 39.72 9.03042 38.5163 8.91455 37.3127C8.56692 34.424 9.72568 32.4981 11.3479 30.5723C9.72568 30.8131 8.33517 31.0538 6.71291 30.8131C3.9319 30.3316 1.61439 28.6465 0.687383 26.2392C-0.471372 23.832 -0.00787014 20.4618 0.919134 18.0545C2.07789 15.4065 4.16365 13.4807 6.71291 12.7585C9.49392 11.7956 11.8114 12.2771 14.1289 13.24C12.9702 11.5549 12.0432 10.1105 11.5797 8.18472C11.1162 6.01818 11.5797 3.6109 12.9702 1.92582C14.1289 0.481454 15.7512 0 17.6052 0Z" fill="black"/>
<path d="M40.4927 0.027832C42.8102 0.027832 45.1277 0.750013 46.75 2.4351C48.3722 3.87946 49.2992 6.04601 49.2992 8.45328C49.531 11.1013 48.604 13.0271 46.9817 14.7122C53.9343 13.2678 59.728 18.5638 59.0328 26.0263C58.801 28.9151 57.4105 31.8038 55.093 33.7296C52.312 36.1369 49.531 36.3776 46.0547 36.1369C48.1405 38.5441 48.3722 40.47 48.1405 43.5994C45.1277 54.1914 31.2227 50.5805 30.7592 40.47C30.2956 35.8961 30.5274 30.1187 30.5274 25.3042C30.7592 16.3973 27.7464 1.23147 40.4927 0.027832Z" fill="black"/>
</svg>
