<svg width="269" height="49" viewBox="0 0 269 49" fill="none" xmlns="http://www.w3.org/2000/svg">
<path d="M16.2202 0.43757C22.2438 -0.1841 25.8295 1.53543 30.7743 4.77341C42.1746 -3.67995 57.1014 0.27864 60.6347 15.3916C61.5839 19.4515 61.2063 25.1103 61.1975 29.4227L61.1384 47.206L47.1211 47.214L47.1191 28.6722C47.1195 24.1732 48.5053 15.3805 42.2356 15.4873C37.0323 15.5758 37.6322 21.8094 37.6404 25.4896L37.6697 35.5552L37.6827 47.2401L23.5997 47.2561L23.6156 29.2923C23.6164 26.1298 23.7294 22.8689 23.4588 19.7244C23.1178 15.768 18.2416 14.1308 15.6207 16.8474C14.9478 17.544 14.4894 18.4363 14.3049 19.4094C14.0722 20.6676 14.1975 27.0187 14.2034 28.606L14.2128 47.218L0.0500884 47.2481L0.0300141 28.2769C0.0259985 24.9157 -0.148972 19.2041 0.393709 16.1312C0.901779 13.226 2.00493 10.4708 3.62685 8.05655C6.68598 3.53549 11.1196 1.3462 16.2202 0.43757Z" fill="black"/>
<path d="M188.732 4.79802C192.315 2.01394 196.312 0.367056 200.801 0.324915C205.689 0.274347 210.397 2.26478 213.887 5.85775C216.099 8.18932 217.68 11.0974 218.466 14.2828C219.518 18.5579 219.22 25.277 219.218 29.9346L219.208 47.2362L205.222 47.2402L205.257 28.869C205.261 25.8209 205.4 22.5339 205.125 19.5339C204.658 17.1056 202.911 15.4646 200.614 15.5029C194.929 15.598 195.751 21.6429 195.778 25.7707C195.805 28.9653 195.811 32.16 195.793 35.3546C195.742 39.2817 195.776 43.283 195.771 47.2161L181.741 47.2242L181.743 28.0483C181.743 25.3914 181.919 21.96 181.59 19.3754C180.955 14.3745 173.13 14.1893 172.514 19.3373C172.14 22.4817 172.312 25.871 172.316 29.0356L172.346 47.2442L158.335 47.2402L158.305 28.1426C158.299 24.6289 158.093 19.1434 158.687 15.891C159.196 13.0015 160.317 10.269 161.969 7.89634C165.151 3.39475 169.543 1.23595 174.725 0.445115C180.354 -0.0360877 184.206 1.42739 188.732 4.79802Z" fill="black"/>
<path fill-rule="evenodd" clip-rule="evenodd" d="M243.717 0.540499C256.322 -0.738763 267.529 8.94289 268.755 22.1706C269.983 35.3966 260.762 47.1638 248.159 48.4581C235.546 49.7525 224.323 40.0682 223.096 26.8301C221.868 13.5936 231.104 1.82056 243.717 0.540499ZM245.027 14.8122C250.134 14.2835 254.691 18.1787 255.23 23.5331C255.768 28.8889 252.089 33.697 246.989 34.299C241.839 34.909 237.204 31 236.659 25.5919C236.114 20.1839 239.872 15.346 245.027 14.8122Z" fill="black"/>
<path fill-rule="evenodd" clip-rule="evenodd" d="M131.787 0.470209C134.881 0.202116 138.493 0.760576 141.401 1.8791C146.553 3.82157 150.744 7.85842 153.028 13.0796C155.154 18.0161 155.177 22.7787 153.397 27.7995L124.333 27.8155C128.079 37.3071 137.086 38.0877 143.124 30.2456C145.119 32.176 147.348 34.7245 149.261 36.8095L151.884 39.6269C147.228 44.7539 142.922 47.6335 136.04 48.4001C129.701 49.1205 123.35 47.172 118.381 42.982C113.548 38.8242 110.73 32.8904 110.133 26.3928C109.613 20.0878 111.512 13.8255 115.409 8.99481C119.627 3.71362 125.339 1.06017 131.787 0.470209ZM132.607 11.9001C137.114 12.0991 139.797 14.2953 141.394 18.6735C138.625 18.7401 135.854 18.7698 133.085 18.763C130.123 18.7848 127.161 18.7625 124.201 18.6961C125.765 14.2188 128.028 12.3791 132.607 11.9001Z" fill="black"/>
<path d="M84.4961 0.0652566C90.2059 -0.47715 96.847 2.41991 100.93 6.5914C107.739 13.5474 106.788 21.6068 106.777 30.7192L106.75 47.2121L92.5956 47.2101L92.6197 30.8376C92.627 24.7974 94.08 17.8983 87.3937 15.6554C83.2134 14.9535 79.7531 17.0817 79.1198 21.5567C78.7414 24.2296 78.9685 27.6329 78.9727 30.3881L78.9464 47.2061L64.8416 47.2181L64.8359 29.6998C64.834 25.8008 64.6049 20.4148 65.4172 16.7412C66.1343 13.5395 67.546 10.555 69.5424 8.01956C73.492 2.97395 78.4247 0.724453 84.4961 0.0652566Z" fill="black"/>
</svg>
