<svg width="14" height="14" viewBox="0 0 14 14" fill="none" xmlns="http://www.w3.org/2000/svg"><rect width="14" height="14" rx="7" fill="#e95b45"/><g clip-path="url(#a)" fill="#000"><path d="M8.041 3.665a.92.92 0 0 1 .648.269l1.376 1.375a.92.92 0 0 1 0 1.297l-.236.237.018.08a3.54 3.54 0 0 1-1.555 3.679l-.096.06a3.542 3.542 0 1 1-1.12-6.51l.08.018.237-.236a.92.92 0 0 1 .567-.265zM6.167 5.75A1.667 1.667 0 0 0 4.5 7.417a.417.417 0 0 0 .833 0 .833.833 0 0 1 .834-.834.417.417 0 0 0 0-.833"/><path d="M10.75 2.834a.417.417 0 0 1 .05.83l-.05.003h-.416c0 .346-.126.679-.352.937l-.064.068-.54.539a.417.417 0 0 1-.623-.55l.035-.04.538-.538a.6.6 0 0 0 .17-.358l.003-.058a.833.833 0 0 1 .77-.831l.063-.002z"/></g><defs><clipPath id="a"><path fill="#fff" d="M2 2h10v10H2z"/></clipPath></defs></svg>
