<svg width="100" height="20" viewBox="0 0 100 20" fill="none" xmlns="http://www.w3.org/2000/svg">
<path fill-rule="evenodd" clip-rule="evenodd" d="M7.3956 0V2.35507C7.3956 4.67391 7.42628 4.71014 8.56121 5.61594C9.17469 6.08696 9.84952 6.37681 10.0029 6.26812C10.1563 6.15942 10.6777 5.72464 11.1685 5.36232C11.9047 4.78261 11.9967 4.45652 12.0887 2.42754C12.1501 0.217391 12.1501 0.181159 13.0703 0.0724638C13.5917 0.0362319 14.4199 0.289855 15.0027 0.724638C15.5242 1.12319 16.3217 1.99275 16.7511 2.64493C17.2113 3.2971 17.5487 4.34783 17.5487 5.07246C17.61 6.12319 17.3953 6.55797 16.3831 7.6087C15.7082 8.2971 13.9291 9.96377 9.69615 13.6957L5.86191 10.1812C2.39576 6.99275 2.02767 6.55797 1.93565 5.43478C1.8743 4.49275 2.05834 3.84058 2.67182 2.89855C3.13193 2.21014 3.92945 1.26812 4.42023 0.833333C4.97236 0.362319 5.80056 0 7.3956 0ZM94.5095 6.01449C95.5217 6.12319 96.626 6.52174 97.2701 7.02899C97.853 7.46377 98.6811 8.47826 99.0799 9.27536C99.5093 10.0362 99.9081 11.3406 99.9695 12.1377C100.061 12.9348 99.9388 14.2391 99.6934 15.0362C99.4787 15.8333 98.9265 16.9565 98.4971 17.5362C98.0677 18.1159 97.1781 18.913 96.5033 19.2391C95.8285 19.6014 94.6015 19.9275 93.7427 19.9275C92.7611 19.9275 91.7182 19.6377 90.8286 19.0942C90.0925 18.6594 89.0802 17.6449 88.6201 16.8478C88.16 16.0507 87.6692 14.8188 87.5772 14.1304C87.4852 13.442 87.5465 12.1739 87.7306 11.3043C87.9453 10.3623 88.5588 9.16667 89.3869 8.15217C90.1538 7.17391 91.1047 6.37681 91.7488 6.15942C92.3316 5.97826 93.5893 5.9058 94.5095 6.01449ZM91.5035 11.4493C91.2581 12.0652 91.166 13.0072 91.2581 13.6594C91.3808 14.3841 91.7795 15.1812 92.301 15.6159C92.9144 16.1594 93.3746 16.3043 94.0494 16.1232C94.5402 16.0145 95.2763 15.5435 95.6751 15.1087C96.1045 14.6014 96.3499 13.8768 96.3499 13.1159C96.3499 12.5 96.2272 11.6304 96.0432 11.2319C95.8591 10.8333 95.2457 10.2536 94.6629 9.96377C94.5833 9.92419 94.5049 9.88529 94.4287 9.84762C93.8433 9.5582 93.2313 9.59546 92.6691 9.92754V9.92754C92.2396 10.1812 91.7182 10.8696 91.5035 11.4493ZM2.4571 9.78261C2.88654 9.78261 3.56137 10.1087 3.96013 10.5072C4.32821 10.9058 4.72697 11.5942 4.819 12.029C4.94169 12.5 5.67786 13.587 6.50606 14.4928C7.57965 15.6884 8.00908 16.413 8.00908 17.1014C8.00908 17.6812 7.70234 18.4783 7.24223 19.0217C6.6901 19.7101 6.16865 19.9275 5.24843 19.9275C4.17484 19.9275 3.83743 19.7101 2.48778 18.1159C1.65958 17.1014 0.739366 15.7246 0.493975 15.0362C0.248584 14.3478 0.0338661 13.2246 0.00319223 12.5362C-0.0274817 11.558 0.156562 11.1232 0.831388 10.5435C1.2915 10.1087 2.02767 9.78261 2.4571 9.78261ZM16.9659 9.78261C17.4873 9.78261 18.1315 10.1449 18.5916 10.6884C19.0824 11.2681 19.3584 11.9928 19.3584 12.6812C19.3584 13.2609 19.113 14.3841 18.7756 15.1087C18.4689 15.8696 17.8247 17.029 17.334 17.7174C16.8432 18.3696 16.0456 19.1667 15.5242 19.4928C15.0334 19.7826 14.2052 20 13.6838 20C13.193 19.9638 12.4568 19.5652 12.058 19.1304C11.6286 18.6232 11.3832 17.8623 11.3832 17.2101C11.3832 16.5942 11.5673 15.8696 11.782 15.5797C11.9967 15.2536 12.6715 14.529 13.3157 13.9493C13.9598 13.3333 14.5733 12.5362 14.6653 12.1377C14.7573 11.7391 15.1254 11.0507 15.4628 10.5797C15.8309 10.1087 16.4444 9.78261 16.9659 9.78261ZM30.9532 5.83333C31.3212 5.7971 32.1188 6.05072 32.7016 6.34058C33.2844 6.63044 33.8979 7.17391 34.0512 7.5C34.2966 8.07971 34.4193 8.07971 35.2782 7.13768C35.7996 6.5942 36.6892 6.05072 37.2413 5.94203C37.7628 5.83333 38.775 5.97826 39.4192 6.23188C40.094 6.48551 40.9222 7.17391 41.2596 7.71739C41.8424 8.65942 41.9037 9.31159 42.0571 19.5652L38.5296 19.3841L38.3762 14.8551C38.2229 10.471 38.1922 10.3261 37.4254 9.78261C36.6892 9.27536 36.5358 9.31159 35.8917 9.81884C35.2782 10.2899 35.1248 10.8333 34.9408 12.8986C34.7874 14.2754 34.6954 16.3406 34.6954 19.5652H31.3212L31.2599 15C31.1679 10.942 31.1065 10.3986 30.5544 9.92754C30.217 9.63768 29.7262 9.42029 29.4808 9.42029C29.2354 9.42029 28.7753 9.63768 28.4993 9.8913C28.0391 10.2536 27.9164 11.1594 27.487 19.5652H24.2663V6.15942H25.9533C27.487 6.15942 27.6404 6.23188 27.6404 6.95652C27.6097 7.75362 27.6404 7.75362 28.1618 7.17391C28.4686 6.84783 29.0514 6.41304 29.4808 6.19565C29.9102 6.01449 30.5544 5.83333 30.9532 5.83333ZM43.8976 5.7971H45.5846C47.2103 5.7971 47.2717 5.83333 47.2717 6.77536C47.241 7.71739 47.2717 7.75362 47.7931 7.21014C48.0999 6.88406 48.6827 6.52174 49.1121 6.41304C49.5415 6.30435 50.3391 6.37681 50.8912 6.55797C51.4127 6.73913 52.1488 7.31884 52.4862 7.86232C53.0691 8.76812 53.1304 9.42029 53.0997 19.5652H50.0323V15.5797C50.0323 12.0652 49.971 11.5217 49.4189 10.8696C49.0814 10.471 48.6213 10.1449 48.4373 10.1449C48.2226 10.1449 47.7931 10.4348 47.4864 10.7971C47.0263 11.3043 46.9343 12.029 46.9649 19.5652H43.8976V5.7971ZM60.4615 5.83333C60.7069 5.83333 61.4737 5.97826 62.1485 6.19565C62.8234 6.41304 63.7436 6.92029 64.2344 7.28261C64.6945 7.68116 65.3079 8.58696 65.6454 9.31159C65.9521 10.0725 66.2895 11.4493 66.5962 14.1304H62.4553C58.9891 14.1304 58.3143 14.2029 58.3143 14.6739C58.3143 14.9638 58.6824 15.5435 59.1732 15.942C59.6333 16.3768 60.4308 16.7029 60.9216 16.7029C61.443 16.7029 62.2099 16.3768 62.7007 15.942C63.1608 15.5435 63.5902 15.2174 63.6822 15.2174C63.7742 15.2174 64.3264 15.5797 66.0134 16.8478L65.3079 17.7174C64.9092 18.1884 64.0503 18.8768 63.3755 19.2391C62.7007 19.6014 61.4737 19.9275 60.6148 19.9275C59.7866 19.9275 58.529 19.6377 57.8542 19.2754C57.1794 18.913 56.2285 17.971 55.707 17.2101C55.0015 16.1232 54.7561 15.3623 54.6641 13.8043C54.6027 12.6812 54.6948 11.1957 54.9095 10.5072C55.0935 9.81884 55.7684 8.62319 56.3818 7.89855C57.0873 7.10145 58.0382 6.41304 58.7744 6.19565C59.4492 6.01449 60.2161 5.86957 60.4615 5.83333ZM58.3756 10.7609C58.0076 11.5942 58.0076 11.5942 60.3081 11.5942C62.1485 11.5942 62.6086 11.4855 62.6086 11.0507C62.6086 10.7609 62.3326 10.1812 61.9952 9.78261C61.6577 9.38406 61.0136 9.05797 60.5535 9.05797C60.0627 9.05797 59.4799 9.27536 59.2038 9.52899C58.9278 9.78261 58.5597 10.3261 58.3756 10.7609ZM75.6451 6.01449C76.3812 6.12319 77.1787 6.55797 78.4057 7.97101L79.0192 7.24638C79.3566 6.81159 80.0928 6.34058 80.6449 6.12319C81.197 5.9058 82.1786 5.83333 82.7921 5.94203C83.4055 6.08696 84.2337 6.48551 84.6325 6.88406C85.0006 7.28261 85.4607 8.00725 85.6141 8.51449C85.7981 9.02174 85.9208 11.7029 85.9208 19.5652L82.3933 19.3841L82.332 15.0362C82.2706 11.4493 82.1479 10.5797 81.7185 10.0362C81.289 9.56522 80.9516 9.45652 80.2768 9.67391C79.786 9.85507 79.2646 10.3261 79.1419 10.7609C78.9885 11.2319 78.8658 13.3696 78.8658 19.5652H75.1849V15.2174C75.1849 11.3406 75.1236 10.7971 74.5715 10.1449C74.234 9.74638 73.7739 9.42029 73.5899 9.42029C73.3752 9.38406 72.8537 9.67391 72.455 10.0362C71.8108 10.6159 71.7188 11.0145 71.6574 13.7681C71.6268 15.471 71.5654 17.4638 71.5041 19.5652H68.1299V6.15942H69.817C71.3507 6.15942 71.5041 6.23188 71.5041 6.95652C71.4734 7.75362 71.5041 7.75362 72.0255 7.17391C72.3323 6.81159 73.0071 6.37681 73.4979 6.19565C74.0193 5.97826 74.9702 5.9058 75.6451 6.01449Z" fill="white"/>
</svg>
