<svg fill="currentColor" viewBox="0 0 24 24" xmlns="http://www.w3.org/2000/svg"><path d="m12 1.999 0.041 2e-3 0.208 3e-3a8 8 0 0 1 7.747 7.747l3e-3 0.248 0.177 6e-3a3 3 0 0 1 2.819 2.819l5e-3 0.176a3 3 0 0 1-3 3l-1e-3 1.696 1.833 2.75a1 1 0 0 1-0.72 1.548l-0.112 6e-3h-10c-3.445 2e-3 -6.327-2.49-6.901-5.824l-0.028-0.178-0.071 1e-3a3 3 0 0 1-2.995-2.824l-5e-3 -0.175a3 3 0 0 1 3-3l4e-3 -0.25a8 8 0 0 1 7.996-7.75zm0 10.001a2 2 0 0 0-2 2 1 1 0 0 0 1 1h2a1 1 0 0 0 1-1 2 2 0 0 0-2-2zm-1.99-4-0.127 7e-3a1 1 0 0 0 0.117 1.993l0.127-7e-3a1 1 0 0 0-0.117-1.993zm4 0-0.127 7e-3a1 1 0 0 0 0.117 1.993l0.127-7e-3a1 1 0 0 0-0.117-1.993z"/></svg>
