<svg width="21" height="18" viewBox="0 0 21 18" fill="none" xmlns="http://www.w3.org/2000/svg"><path fill-rule="evenodd" clip-rule="evenodd" d="M7.691 0v2.12c0 2.087.032 2.12 1.213 2.934.638.424 1.34.685 1.499.587s.702-.489 1.212-.815c.766-.522.862-.815.957-2.641.064-1.99.064-2.022 1.021-2.12.542-.032 1.404.196 2.01.587.542.359 1.372 1.141 1.818 1.728.479.587.83 1.533.83 2.185.063.946-.16 1.337-1.213 2.283-.701.62-2.552 2.12-6.954 5.478L6.096 9.163c-3.604-2.87-3.987-3.26-4.083-4.272-.064-.848.128-1.434.766-2.282.478-.62 1.308-1.468 1.818-1.859C5.171.326 6.033 0 7.691 0M2.555 8.804c.447 0 1.149.294 1.564.653.382.358.797.978.893 1.37.127.423.893 1.401 1.754 2.217C7.883 14.12 8.33 14.772 8.33 15.39c0 .522-.319 1.24-.797 1.729-.574.62-1.117.815-2.074.815-1.116 0-1.467-.196-2.87-1.63-.862-.914-1.82-2.153-2.074-2.772-.255-.62-.479-1.63-.51-2.25-.033-.88.159-1.272.86-1.794.48-.391 1.245-.685 1.691-.685m15.09 0c.542 0 1.212.326 1.69.816.51.521.798 1.174.798 1.793 0 .522-.255 1.533-.606 2.185-.32.685-.99 1.728-1.5 2.348-.51.587-1.34 1.304-1.882 1.598-.51.26-1.372.456-1.914.456-.51-.033-1.276-.391-1.69-.783a2.6 2.6 0 0 1-.703-1.728c0-.554.192-1.206.415-1.467.224-.294.925-.946 1.595-1.468.67-.554 1.308-1.271 1.404-1.63s.478-.978.83-1.402c.382-.424 1.02-.718 1.563-.718" fill="#000"/></svg>