<svg width="100" height="20" viewBox="0 0 100 20" fill="none" xmlns="http://www.w3.org/2000/svg"><path fill-rule="evenodd" clip-rule="evenodd" d="M7.396 0v2.355c0 2.319.03 2.355 1.165 3.26.614.472 1.289.762 1.442.653s.675-.543 1.165-.906c.737-.58.829-.905.92-2.934.062-2.21.062-2.247.982-2.356.522-.036 1.35.218 1.933.653.521.398 1.319 1.268 1.748 1.92.46.652.798 1.703.798 2.427.061 1.051-.154 1.486-1.166 2.537-.675.688-2.454 2.355-6.687 6.087L5.862 10.18C2.396 6.993 2.028 6.558 1.936 5.435c-.062-.942.122-1.594.736-2.536.46-.689 1.257-1.63 1.748-2.066C4.972.363 5.8 0 7.396 0M94.51 6.014c1.012.11 2.116.508 2.76 1.015.583.435 1.411 1.45 1.81 2.246.43.761.828 2.066.89 2.863.091.797-.031 2.101-.277 2.898-.214.797-.766 1.92-1.196 2.5s-1.319 1.377-1.994 1.703c-.674.362-1.901.688-2.76.688a5.7 5.7 0 0 1-2.914-.833c-.736-.435-1.749-1.45-2.209-2.246-.46-.797-.95-2.03-1.043-2.718s-.03-1.956.154-2.826c.214-.942.828-2.137 1.656-3.152.767-.978 1.718-1.775 2.362-1.993.583-.18 1.84-.253 2.76-.145m-3.007 5.435c-.245.616-.337 1.558-.245 2.21.123.725.522 1.522 1.043 1.957.613.543 1.074.688 1.748.507.491-.108 1.227-.58 1.626-1.014.43-.508.675-1.232.675-1.993 0-.616-.123-1.486-.307-1.884-.184-.399-.797-.978-1.38-1.268l-.234-.116c-.586-.29-1.198-.253-1.76.08-.43.253-.95.942-1.165 1.521M2.457 9.783c.43 0 1.104.326 1.503.724.368.399.767 1.087.859 1.522.123.471.859 1.558 1.687 2.464 1.074 1.195 1.503 1.92 1.503 2.609 0 .58-.307 1.376-.767 1.92-.552.688-1.073.906-1.994.906-1.073 0-1.41-.218-2.76-1.812C1.66 17.1.739 15.725.494 15.036c-.245-.688-.46-1.811-.49-2.5-.031-.978.153-1.413.827-1.992.46-.435 1.197-.761 1.626-.761m14.509 0c.521 0 1.165.362 1.626.905.49.58.766 1.305.766 1.993 0 .58-.245 1.703-.582 2.428-.307.76-.951 1.92-1.442 2.608-.49.653-1.288 1.45-1.81 1.776-.49.29-1.319.507-1.84.507-.491-.036-1.227-.435-1.626-.87-.43-.507-.675-1.268-.675-1.92 0-.616.184-1.34.399-1.63.215-.326.89-1.051 1.534-1.63.644-.617 1.257-1.414 1.35-1.812.091-.399.46-1.087.797-1.558.368-.471.981-.797 1.503-.797m13.987-3.95c.368-.036 1.166.218 1.749.508.582.29 1.196.833 1.35 1.159.245.58.367.58 1.226-.362.522-.544 1.411-1.087 1.963-1.196.522-.109 1.534.036 2.178.29.675.254 1.503.942 1.84 1.485.583.942.645 1.595.798 11.848l-3.527-.18-.154-4.53c-.153-4.384-.184-4.529-.95-5.072-.737-.508-.89-.471-1.534.036-.614.47-.767 1.014-.951 3.08-.154 1.376-.246 3.442-.246 6.666h-3.374L31.26 15c-.092-4.058-.154-4.601-.706-5.072-.337-.29-.828-.508-1.073-.508-.246 0-.706.218-.982.471-.46.363-.583 1.268-1.012 9.674h-3.22V6.16h1.686c1.534 0 1.687.073 1.687.798-.03.797 0 .797.522.217.307-.326.89-.761 1.319-.978.43-.182 1.073-.363 1.472-.363m12.945-.036h1.687c1.625 0 1.687.036 1.687.978-.031.942 0 .979.521.435.307-.326.89-.688 1.32-.797.429-.109 1.226-.036 1.778.145.522.181 1.258.76 1.595 1.304.583.906.644 1.558.614 11.703h-3.068V15.58c0-3.515-.061-4.058-.613-4.71-.338-.399-.798-.725-.982-.725-.214 0-.644.29-.95.652-.46.507-.553 1.232-.522 8.768h-3.067zm16.563.036c.246 0 1.013.145 1.688.363.674.217 1.595.724 2.085 1.087.46.398 1.074 1.304 1.411 2.029.307.76.645 2.137.951 4.818h-4.14c-3.467 0-4.142.073-4.142.544 0 .29.368.87.86 1.268.46.435 1.257.76 1.748.76.521 0 1.288-.325 1.779-.76.46-.399.89-.725.981-.725.092 0 .644.363 2.331 1.63l-.705.87c-.399.471-1.258 1.16-1.933 1.522-.674.362-1.901.688-2.76.688-.828 0-2.086-.29-2.76-.652-.676-.362-1.626-1.304-2.148-2.065-.706-1.087-.95-1.848-1.043-3.406-.061-1.123.03-2.608.245-3.297.184-.688.86-1.884 1.473-2.608.705-.798 1.656-1.486 2.392-1.703a19 19 0 0 1 1.688-.363m-2.085 4.928c-.368.833-.368.833 1.932.833 1.84 0 2.3-.108 2.3-.543 0-.29-.275-.87-.613-1.268-.337-.399-.981-.725-1.441-.725-.491 0-1.074.217-1.35.471s-.644.797-.828 1.232m17.269-4.747c.736.11 1.534.544 2.76 1.957l.614-.725c.338-.434 1.074-.905 1.626-1.123s1.534-.29 2.147-.181c.614.145 1.442.544 1.84.942.369.399.829 1.123.982 1.63.184.508.307 3.189.307 11.051l-3.528-.18-.061-4.349c-.061-3.587-.184-4.456-.613-5-.43-.47-.767-.58-1.442-.362-.491.181-1.012.652-1.135 1.087-.153.47-.276 2.609-.276 8.804h-3.681v-4.348c0-3.876-.061-4.42-.614-5.072-.337-.399-.797-.725-.981-.725-.215-.036-.736.254-1.135.616-.644.58-.736.979-.798 3.732-.03 1.703-.092 3.696-.153 5.797H68.13V6.16h1.687c1.534 0 1.687.073 1.687.798-.03.797 0 .797.521.217.307-.362.982-.797 1.473-.978.521-.218 1.472-.29 2.147-.182" fill="#000"/></svg>