<svg width="76" height="15" viewBox="0 0 76 15" fill="none" xmlns="http://www.w3.org/2000/svg"><path fill-rule="evenodd" clip-rule="evenodd" d="M70.243.217c1.013.11 2.117.508 2.76 1.015.584.435 1.412 1.45 1.81 2.246.43.761.829 2.065.89 2.863.092.797-.03 2.101-.276 2.898-.215.797-.767 1.92-1.196 2.5-.43.58-1.32 1.377-1.994 1.703-.675.362-1.902.688-2.76.688a5.7 5.7 0 0 1-2.915-.833c-.736-.435-1.748-1.45-2.208-2.246-.46-.797-.951-2.03-1.043-2.718s-.03-1.956.153-2.826c.215-.942.829-2.137 1.657-3.152.767-.978 1.717-1.775 2.362-1.993.582-.18 1.84-.253 2.76-.145m-3.006 5.435c-.245.616-.337 1.558-.245 2.21.123.725.521 1.522 1.043 1.957.613.543 1.073.688 1.748.507.49-.109 1.227-.58 1.626-1.014.43-.508.675-1.232.675-1.993 0-.616-.123-1.486-.307-1.884-.184-.399-.798-.978-1.38-1.268l-.235-.116c-.585-.29-1.197-.253-1.76.08-.429.253-.95.941-1.165 1.521M6.687.036C7.055 0 7.853.254 8.435.543s1.197.834 1.35 1.16c.245.58.368.58 1.227-.362.521-.544 1.41-1.087 1.963-1.196.521-.109 1.534.036 2.178.29.675.253 1.503.942 1.84 1.485.583.942.645 1.594.798 11.848l-3.528-.181-.153-4.529c-.153-4.384-.184-4.529-.95-5.072-.737-.508-.89-.472-1.535.036-.613.47-.766 1.014-.95 3.08-.154 1.376-.246 3.441-.246 6.666H7.055l-.061-4.565C6.902 5.145 6.84 4.6 6.288 4.13c-.337-.29-.828-.507-1.073-.507-.246 0-.706.218-.982.471-.46.363-.583 1.268-1.012 9.674H0V.362h1.687c1.534 0 1.687.073 1.687.797-.03.798 0 .798.522.218.306-.326.89-.761 1.319-.978C5.644.217 6.288.036 6.687.036M19.63 0h1.687c1.626 0 1.687.036 1.687.978-.03.942 0 .979.522.435.307-.326.89-.688 1.319-.797.43-.109 1.227-.036 1.779.145.521.181 1.258.76 1.595 1.304.583.906.644 1.558.614 11.703h-3.068V9.783c0-3.515-.061-4.058-.613-4.71-.338-.4-.798-.725-.982-.725-.215 0-.644.29-.95.652-.461.507-.553 1.232-.522 8.768H19.63zm16.564.036c.246 0 1.012.145 1.687.363.675.217 1.595.724 2.086 1.087.46.398 1.074 1.304 1.411 2.028.307.761.644 2.138.951 4.82h-4.141c-3.466 0-4.141.072-4.141.543 0 .29.368.87.859 1.268.46.435 1.258.76 1.748.76.522 0 1.289-.325 1.78-.76.46-.399.889-.725.981-.725s.644.363 2.331 1.63l-.705.87c-.4.471-1.258 1.16-1.933 1.522s-1.901.688-2.76.688c-.829 0-2.086-.29-2.761-.652s-1.626-1.304-2.147-2.065c-.706-1.087-.951-1.848-1.043-3.406-.061-1.123.03-2.608.245-3.297.184-.688.86-1.884 1.473-2.609C32.82 1.304 33.772.616 34.508.4a19 19 0 0 1 1.687-.363M34.11 4.964c-.368.833-.368.833 1.933.833 1.84 0 2.3-.109 2.3-.543 0-.29-.276-.87-.613-1.268-.337-.399-.982-.725-1.442-.725-.49 0-1.073.217-1.35.47-.276.255-.644.798-.828 1.233M51.38.217c.736.11 1.534.544 2.76 1.957l.614-.725c.337-.435 1.074-.906 1.626-1.123s1.533-.29 2.147-.181c.613.145 1.441.543 1.84.942.368.399.828 1.123.982 1.63.184.508.306 3.189.306 11.051l-3.527-.181-.061-4.348c-.062-3.587-.184-4.456-.614-5-.43-.47-.767-.58-1.441-.362-.491.181-1.013.652-1.135 1.087-.154.47-.276 2.608-.276 8.804H50.92V9.42c0-3.877-.062-4.42-.614-5.072-.337-.399-.797-.725-.981-.725-.215-.036-.736.254-1.135.616-.644.58-.736.978-.798 3.732-.03 1.703-.092 3.696-.153 5.797h-3.374V.362h1.687c1.533 0 1.687.073 1.687.797-.03.798 0 .798.521.218.307-.363.982-.797 1.473-.978.521-.218 1.472-.29 2.147-.182" fill="#000"/></svg>